# xmcd
#
# Track frame offsets:
#	150
#	26022
#	39297
#	56361
#	68969
#	81183
#	94881
#	106659
#	120291
#	134409
#	148198
#	160567
#	173058
#	186719
#	200224
#	213313
#	229932
#	243073
#	254395
#	267871
#
# Disc length: 3729
#
# Revision: 1
# Processed by: cddbd v1.5.1PL0 Copyright (c) Steve Scherf et al.
# Submitted via: CDex 1.51
# Normalized: r0:TDELIM( - )
#
DISCID=190e8f14
DTITLE=Various Artist - Swingtime (07/10)
DYEAR=2003
DGENRE=Jazz
TTITLE0=Lionel Hampton - Rockin' in thythm part 1 and 2 - 19460129
TTITLE1=Buck Clayton - Them there eyes - 19380908
TTITLE2=Rex Stewart - The little goose - 19440605
TTITLE3=Fats Waller - I ain't got nobody (and nobody cares for me) - 19350306
TTITLE4=Benny Goodman - Dinah - 19360826
TTITLE5=Tommy Dorsey - Well git it - 19420313
TTITLE6=Roy Eldridge - St. Louis blues - 19440124
TTITLE7=Fletcher Henderson - Christopher Columbus - 19360327
TTITLE8=Edmond Hall - It's been so long - 19440505
TTITLE9=Ben Webster - Cadillac Slim - 19460823
TTITLE10=Gene Krupa - Full dress hop - 19401024
TTITLE11=Django Reinhardt - Limehouse blues - 19360504
TTITLE12=Johnny Hodges - Good Queen Bess - 19510228
TTITLE13=Duke Ellington - Merry-go-round - 19350430
TTITLE14=John Kirby - Coquette - 19400709
TTITLE15=Erroll Garner - I'm in the mood for love - 19510111
TTITLE16=Lionel Hampton - Singin' the blues (till my daddy comes home) - 19391221
TTITLE17=Jimmie Lunceford - The lonesome road - 19390131
TTITLE18=Lester Young - D. B. blues - 194510
TTITLE19=Woody Herman - Yardbird shuffle - 1939-40
EXTD=YEAR: 2003
EXTT0=
EXTT1=
EXTT2=
EXTT3=
EXTT4=
EXTT5=
EXTT6=
EXTT7=
EXTT8=
EXTT9=
EXTT10=
EXTT11=
EXTT12=
EXTT13=
EXTT14=
EXTT15=
EXTT16=
EXTT17=
EXTT18=
EXTT19=
PLAYORDER=
